<svg width="20" height="19" viewBox="0 0 20 19" fill="none" xmlns="http://www.w3.org/2000/svg">
<g filter="url(#filter0_d_2_158)">
<path d="M2.26666 4.73325C2.26666 6.19992 2.73333 7.33325 3.73333 7.93325C4.53333 8.46658 5.46666 8.53325 5.93333 8.53325C6.06666 8.53325 6.13333 8.53325 6.2 8.53325C6.2 8.53325 6.06666 9.53325 6.8 10.5333H6.73333C5.46666 10.5333 1.26666 10.7999 1.26666 14.2666C1.26666 17.7999 5.13333 17.9333 5.93333 17.9333C6 17.9333 6 17.9333 6 17.9333C6 17.9333 6.06666 17.9333 6.13333 17.9333C6.6 17.9333 7.93333 17.8666 9.13333 17.2666C10.6667 16.5333 11.4667 15.1999 11.4667 13.3999C11.4667 11.6666 10.2667 10.5999 9.4 9.79992C8.86666 9.33325 8.4 8.93325 8.4 8.53325C8.4 8.13325 8.73333 7.79992 9.13333 7.46658C9.8 6.86658 10.4667 5.99992 10.4667 4.33325C10.4667 2.86659 10.2667 1.86659 9.13333 1.26659C9.33333 1.19992 9.8 1.13325 10 1.13325C10.6 1.06659 11.5333 0.933252 11.5333 0.466585V0.333252H6.93333C6.86666 0.333252 2.26666 0.533252 2.26666 4.73325ZM9.73333 13.7333C9.8 15.1333 8.6 16.1999 6.8 16.3333C4.93333 16.4666 3.46666 15.6666 3.4 14.2666C3.33333 13.5999 3.66666 12.9333 4.26666 12.3999C4.86666 11.8666 5.66666 11.5333 6.53333 11.4666C6.66666 11.4666 6.73333 11.4666 6.86666 11.4666C8.46666 11.3999 9.6 12.3999 9.73333 13.7333ZM8.53333 3.73325C9 5.33325 8.33333 6.99992 7.2 7.26658C7.06666 7.33325 6.93333 7.33325 6.8 7.33325C5.8 7.33325 4.8 6.33325 4.46666 4.93325C4.26666 4.19992 4.26666 3.53325 4.53333 2.86659C4.73333 2.19992 5.2 1.79992 5.66666 1.66659C5.8 1.59992 5.93333 1.59992 6.06666 1.59992C7.26666 1.59992 8 2.06659 8.53333 3.73325ZM16.2667 7.13325V4.13325H14.2667V7.13325H11.2667V9.13325H14.2667V12.1333H16.2667V9.13325H19.2667V7.13325H16.2667Z" fill="black"/>
</g>
<defs>
<filter id="filter0_d_2_158" x="-2.73334" y="0.333252" width="26" height="25.6001" filterUnits="userSpaceOnUse" color-interpolation-filters="sRGB">
<feFlood flood-opacity="0" result="BackgroundImageFix"/>
<feColorMatrix in="SourceAlpha" type="matrix" values="0 0 0 0 0 0 0 0 0 0 0 0 0 0 0 0 0 0 127 0" result="hardAlpha"/>
<feOffset dy="4"/>
<feGaussianBlur stdDeviation="2"/>
<feComposite in2="hardAlpha" operator="out"/>
<feColorMatrix type="matrix" values="0 0 0 0 0 0 0 0 0 0 0 0 0 0 0 0 0 0 0.25 0"/>
<feBlend mode="normal" in2="BackgroundImageFix" result="effect1_dropShadow_2_158"/>
<feBlend mode="normal" in="SourceGraphic" in2="effect1_dropShadow_2_158" result="shape"/>
</filter>
</defs>
</svg>
