<svg width="28" height="26" viewBox="0 0 28 26" fill="none" xmlns="http://www.w3.org/2000/svg">
<g filter="url(#filter0_d_2_127)">
<path d="M21.4667 6.40008C21.4667 6.53342 21.4667 6.73342 21.4667 6.86675C21.4667 11.8667 17.6667 17.6001 10.7334 17.6001C8.60002 17.6001 6.60002 17.0001 4.93335 15.9334C5.20002 15.9334 5.53335 16.0001 5.86668 16.0001C7.66668 16.0001 9.26668 15.4001 10.5333 14.4001C8.86668 14.4001 7.46668 13.2667 7.00002 11.8001C7.20002 11.8667 7.46668 11.8667 7.73335 11.8667C8.06668 11.8667 8.40002 11.8001 8.73335 11.7334C7.00002 11.3334 5.66668 9.80008 5.66668 8.00008C5.66668 8.00008 5.66668 8.00008 5.66668 7.93341C6.20002 8.20008 6.73335 8.40008 7.40002 8.40008C6.40002 7.73342 5.73335 6.60008 5.73335 5.26675C5.73335 4.60008 5.93335 3.93341 6.26668 3.40008C8.13335 5.66675 10.9334 7.20008 14.0667 7.33342C14 7.06675 14 6.80008 14 6.46675C14 4.40008 15.6667 2.66675 17.8 2.66675C18.8667 2.66675 19.8667 3.13341 20.5333 3.86675C21.4 3.66675 22.2 3.40008 22.9333 2.93341C22.6667 3.80008 22.0667 4.53341 21.2667 5.00008C21.9333 4.93341 22.6667 4.73341 23.3334 4.46675C22.8 5.20008 22.2 5.86675 21.4667 6.40008Z" fill="black"/>
</g>
<defs>
<filter id="filter0_d_2_127" x="0" y="0" width="28" height="28" filterUnits="userSpaceOnUse" color-interpolation-filters="sRGB">
<feFlood flood-opacity="0" result="BackgroundImageFix"/>
<feColorMatrix in="SourceAlpha" type="matrix" values="0 0 0 0 0 0 0 0 0 0 0 0 0 0 0 0 0 0 127 0" result="hardAlpha"/>
<feOffset dy="4"/>
<feGaussianBlur stdDeviation="2"/>
<feComposite in2="hardAlpha" operator="out"/>
<feColorMatrix type="matrix" values="0 0 0 0 0 0 0 0 0 0 0 0 0 0 0 0 0 0 0.25 0"/>
<feBlend mode="normal" in2="BackgroundImageFix" result="effect1_dropShadow_2_127"/>
<feBlend mode="normal" in="SourceGraphic" in2="effect1_dropShadow_2_127" result="shape"/>
</filter>
</defs>
</svg>
